<svg height="512" viewBox="0 0 128 128" width="512" xmlns="http://www.w3.org/2000/svg" xmlns:xlink="http://www.w3.org/1999/xlink"><linearGradient id="a" gradientUnits="userSpaceOnUse" x1="97.642" x2="21.354" y1="103.649" y2="27.361"><stop offset="0" stop-color="#a9d13c"/><stop offset="1" stop-color="#7be2f7"/></linearGradient><path d="m75.167 37.7a1.75 1.75 0 0 1 2.933-1.909c9.019 13.874 14.278 24.639 15.632 32a1.75 1.75 0 0 1 -1.405 2.037 1.645 1.645 0 0 1 -.318.03 1.75 1.75 0 0 1 -1.719-1.434c-1.25-6.807-6.48-17.43-15.123-30.724zm-3.589-5.386a1.75 1.75 0 1 0 2.889-1.977l-.713-1.04a1.75 1.75 0 1 0 -2.884 1.982zm-47.878-.048c0-4.635 6.748-13.589 8.1-15.337a1.812 1.812 0 0 1 2.767 0c1.353 1.748 8.1 10.7 8.1 15.337a9.485 9.485 0 0 1 -18.969 0zm3.5 0a5.985 5.985 0 0 0 11.969 0c0-2.169-3.156-7.395-5.984-11.335-2.725 3.795-5.985 9.069-5.985 11.335zm7.371 61.334c.962 1.242 5.757 7.61 5.757 11.013a7.141 7.141 0 1 1 -14.281 0c0-3.4 4.795-9.771 5.757-11.013a1.812 1.812 0 0 1 2.767 0zm2.257 11.013c0-1.189-1.708-4.218-3.64-6.985-1.933 2.769-3.641 5.8-3.641 6.985a3.641 3.641 0 1 0 7.281 0zm59.742-56.321a1.75 1.75 0 0 0 0-3.5 4.231 4.231 0 0 1 -4.226-4.227c0-1.511 2.165-5.147 4.226-8.073 2.062 2.926 4.227 6.562 4.227 8.073a4.183 4.183 0 0 1 -.332 1.645 1.75 1.75 0 1 0 3.224 1.363 7.689 7.689 0 0 0 .608-3.008c0-3.711-5.284-10.725-6.343-12.094a1.812 1.812 0 0 0 -2.767 0c-1.06 1.369-6.343 8.383-6.343 12.094a7.735 7.735 0 0 0 7.726 7.727zm-55.133 26.208a1.75 1.75 0 0 0 1.68-1.816q-.015-.4-.015-.808a1.75 1.75 0 0 0 -3.5 0c0 .315.006.63.018.942a1.749 1.749 0 0 0 1.748 1.682zm21.985 21.2a1.75 1.75 0 0 0 0-3.5 20.224 20.224 0 0 1 -19.412-14.3 1.75 1.75 0 1 0 -3.343 1.037 23.708 23.708 0 0 0 22.755 16.763zm40.878-5.762a17.041 17.041 0 0 1 -30.629 10.306 30.681 30.681 0 0 1 -40.912-28.91c0-16.38 28.086-52.86 29.282-54.4a1.75 1.75 0 0 1 2.768 0c.022.029 2.233 2.89 5.375 7.278a1.75 1.75 0 0 1 -2.846 2.037c-1.611-2.25-2.973-4.092-3.912-5.346-5.719 7.637-27.17 37.197-27.17 50.431a27.168 27.168 0 0 0 35.549 25.841 17.054 17.054 0 1 1 32.495-7.237zm-3.5 0a13.563 13.563 0 1 0 -13.566 13.562 13.578 13.578 0 0 0 13.566-13.562zm-11.813-.673v-7.432a1.75 1.75 0 0 0 -3.5 0v8.105a1.749 1.749 0 0 0 .451 1.171l2.688 2.98a1.75 1.75 0 1 0 2.6-2.344z" fill="url(#a)"/></svg>